<?xml version="1.0" standalone="yes"?><svg version="1.1" xmlns="http://www.w3.org/2000/svg" xmlns:xlink="http://www.w3.org/1999/xlink" xmlns:ev="http://www.w3.org/2001/xml-events" width="231" height="231" shape-rendering="crispEdges"><rect width="11" height="11" x="0" y="0" fill="#000"/><rect width="11" height="11" x="11" y="0" fill="#000"/><rect width="11" height="11" x="22" y="0" fill="#000"/><rect width="11" height="11" x="33" y="0" fill="#000"/><rect width="11" height="11" x="44" y="0" fill="#000"/><rect width="11" height="11" x="55" y="0" fill="#000"/><rect width="11" height="11" x="66" y="0" fill="#000"/><rect width="11" height="11" x="88" y="0" fill="#000"/><rect width="11" height="11" x="99" y="0" fill="#000"/><rect width="11" height="11" x="121" y="0" fill="#000"/><rect width="11" height="11" x="132" y="0" fill="#000"/><rect width="11" height="11" x="154" y="0" fill="#000"/><rect width="11" height="11" x="165" y="0" fill="#000"/><rect width="11" height="11" x="176" y="0" fill="#000"/><rect width="11" height="11" x="187" y="0" fill="#000"/><rect width="11" height="11" x="198" y="0" fill="#000"/><rect width="11" height="11" x="209" y="0" fill="#000"/><rect width="11" height="11" x="220" y="0" fill="#000"/><rect width="11" height="11" x="0" y="11" fill="#000"/><rect width="11" height="11" x="66" y="11" fill="#000"/><rect width="11" height="11" x="99" y="11" fill="#000"/><rect width="11" height="11" x="121" y="11" fill="#000"/><rect width="11" height="11" x="132" y="11" fill="#000"/><rect width="11" height="11" x="154" y="11" fill="#000"/><rect width="11" height="11" x="220" y="11" fill="#000"/><rect width="11" height="11" x="0" y="22" fill="#000"/><rect width="11" height="11" x="22" y="22" fill="#000"/><rect width="11" height="11" x="33" y="22" fill="#000"/><rect width="11" height="11" x="44" y="22" fill="#000"/><rect width="11" height="11" x="66" y="22" fill="#000"/><rect width="11" height="11" x="121" y="22" fill="#000"/><rect width="11" height="11" x="154" y="22" fill="#000"/><rect width="11" height="11" x="176" y="22" fill="#000"/><rect width="11" height="11" x="187" y="22" fill="#000"/><rect width="11" height="11" x="198" y="22" fill="#000"/><rect width="11" height="11" x="220" y="22" fill="#000"/><rect width="11" height="11" x="0" y="33" fill="#000"/><rect width="11" height="11" x="22" y="33" fill="#000"/><rect width="11" height="11" x="33" y="33" fill="#000"/><rect width="11" height="11" x="44" y="33" fill="#000"/><rect width="11" height="11" x="66" y="33" fill="#000"/><rect width="11" height="11" x="88" y="33" fill="#000"/><rect width="11" height="11" x="99" y="33" fill="#000"/><rect width="11" height="11" x="121" y="33" fill="#000"/><rect width="11" height="11" x="132" y="33" fill="#000"/><rect width="11" height="11" x="154" y="33" fill="#000"/><rect width="11" height="11" x="176" y="33" fill="#000"/><rect width="11" height="11" x="187" y="33" fill="#000"/><rect width="11" height="11" x="198" y="33" fill="#000"/><rect width="11" height="11" x="220" y="33" fill="#000"/><rect width="11" height="11" x="0" y="44" fill="#000"/><rect width="11" height="11" x="22" y="44" fill="#000"/><rect width="11" height="11" x="33" y="44" fill="#000"/><rect width="11" height="11" x="44" y="44" fill="#000"/><rect width="11" height="11" x="66" y="44" fill="#000"/><rect width="11" height="11" x="99" y="44" fill="#000"/><rect width="11" height="11" x="132" y="44" fill="#000"/><rect width="11" height="11" x="154" y="44" fill="#000"/><rect width="11" height="11" x="176" y="44" fill="#000"/><rect width="11" height="11" x="187" y="44" fill="#000"/><rect width="11" height="11" x="198" y="44" fill="#000"/><rect width="11" height="11" x="220" y="44" fill="#000"/><rect width="11" height="11" x="0" y="55" fill="#000"/><rect width="11" height="11" x="66" y="55" fill="#000"/><rect width="11" height="11" x="99" y="55" fill="#000"/><rect width="11" height="11" x="132" y="55" fill="#000"/><rect width="11" height="11" x="154" y="55" fill="#000"/><rect width="11" height="11" x="220" y="55" fill="#000"/><rect width="11" height="11" x="0" y="66" fill="#000"/><rect width="11" height="11" x="11" y="66" fill="#000"/><rect width="11" height="11" x="22" y="66" fill="#000"/><rect width="11" height="11" x="33" y="66" fill="#000"/><rect width="11" height="11" x="44" y="66" fill="#000"/><rect width="11" height="11" x="55" y="66" fill="#000"/><rect width="11" height="11" x="66" y="66" fill="#000"/><rect width="11" height="11" x="88" y="66" fill="#000"/><rect width="11" height="11" x="110" y="66" fill="#000"/><rect width="11" height="11" x="132" y="66" fill="#000"/><rect width="11" height="11" x="154" y="66" fill="#000"/><rect width="11" height="11" x="165" y="66" fill="#000"/><rect width="11" height="11" x="176" y="66" fill="#000"/><rect width="11" height="11" x="187" y="66" fill="#000"/><rect width="11" height="11" x="198" y="66" fill="#000"/><rect width="11" height="11" x="209" y="66" fill="#000"/><rect width="11" height="11" x="220" y="66" fill="#000"/><rect width="11" height="11" x="110" y="77" fill="#000"/><rect width="11" height="11" x="132" y="77" fill="#000"/><rect width="11" height="11" x="22" y="88" fill="#000"/><rect width="11" height="11" x="44" y="88" fill="#000"/><rect width="11" height="11" x="55" y="88" fill="#000"/><rect width="11" height="11" x="66" y="88" fill="#000"/><rect width="11" height="11" x="88" y="88" fill="#000"/><rect width="11" height="11" x="110" y="88" fill="#000"/><rect width="11" height="11" x="121" y="88" fill="#000"/><rect width="11" height="11" x="143" y="88" fill="#000"/><rect width="11" height="11" x="187" y="88" fill="#000"/><rect width="11" height="11" x="220" y="88" fill="#000"/><rect width="11" height="11" x="11" y="99" fill="#000"/><rect width="11" height="11" x="33" y="99" fill="#000"/><rect width="11" height="11" x="44" y="99" fill="#000"/><rect width="11" height="11" x="88" y="99" fill="#000"/><rect width="11" height="11" x="121" y="99" fill="#000"/><rect width="11" height="11" x="132" y="99" fill="#000"/><rect width="11" height="11" x="143" y="99" fill="#000"/><rect width="11" height="11" x="209" y="99" fill="#000"/><rect width="11" height="11" x="220" y="99" fill="#000"/><rect width="11" height="11" x="0" y="110" fill="#000"/><rect width="11" height="11" x="11" y="110" fill="#000"/><rect width="11" height="11" x="44" y="110" fill="#000"/><rect width="11" height="11" x="66" y="110" fill="#000"/><rect width="11" height="11" x="88" y="110" fill="#000"/><rect width="11" height="11" x="110" y="110" fill="#000"/><rect width="11" height="11" x="143" y="110" fill="#000"/><rect width="11" height="11" x="176" y="110" fill="#000"/><rect width="11" height="11" x="187" y="110" fill="#000"/><rect width="11" height="11" x="198" y="110" fill="#000"/><rect width="11" height="11" x="209" y="110" fill="#000"/><rect width="11" height="11" x="220" y="110" fill="#000"/><rect width="11" height="11" x="33" y="121" fill="#000"/><rect width="11" height="11" x="55" y="121" fill="#000"/><rect width="11" height="11" x="110" y="121" fill="#000"/><rect width="11" height="11" x="209" y="121" fill="#000"/><rect width="11" height="11" x="33" y="132" fill="#000"/><rect width="11" height="11" x="44" y="132" fill="#000"/><rect width="11" height="11" x="66" y="132" fill="#000"/><rect width="11" height="11" x="88" y="132" fill="#000"/><rect width="11" height="11" x="99" y="132" fill="#000"/><rect width="11" height="11" x="121" y="132" fill="#000"/><rect width="11" height="11" x="143" y="132" fill="#000"/><rect width="11" height="11" x="154" y="132" fill="#000"/><rect width="11" height="11" x="176" y="132" fill="#000"/><rect width="11" height="11" x="88" y="143" fill="#000"/><rect width="11" height="11" x="99" y="143" fill="#000"/><rect width="11" height="11" x="110" y="143" fill="#000"/><rect width="11" height="11" x="121" y="143" fill="#000"/><rect width="11" height="11" x="143" y="143" fill="#000"/><rect width="11" height="11" x="165" y="143" fill="#000"/><rect width="11" height="11" x="198" y="143" fill="#000"/><rect width="11" height="11" x="209" y="143" fill="#000"/><rect width="11" height="11" x="220" y="143" fill="#000"/><rect width="11" height="11" x="0" y="154" fill="#000"/><rect width="11" height="11" x="11" y="154" fill="#000"/><rect width="11" height="11" x="22" y="154" fill="#000"/><rect width="11" height="11" x="33" y="154" fill="#000"/><rect width="11" height="11" x="44" y="154" fill="#000"/><rect width="11" height="11" x="55" y="154" fill="#000"/><rect width="11" height="11" x="66" y="154" fill="#000"/><rect width="11" height="11" x="99" y="154" fill="#000"/><rect width="11" height="11" x="110" y="154" fill="#000"/><rect width="11" height="11" x="143" y="154" fill="#000"/><rect width="11" height="11" x="165" y="154" fill="#000"/><rect width="11" height="11" x="198" y="154" fill="#000"/><rect width="11" height="11" x="209" y="154" fill="#000"/><rect width="11" height="11" x="220" y="154" fill="#000"/><rect width="11" height="11" x="0" y="165" fill="#000"/><rect width="11" height="11" x="66" y="165" fill="#000"/><rect width="11" height="11" x="88" y="165" fill="#000"/><rect width="11" height="11" x="132" y="165" fill="#000"/><rect width="11" height="11" x="154" y="165" fill="#000"/><rect width="11" height="11" x="165" y="165" fill="#000"/><rect width="11" height="11" x="176" y="165" fill="#000"/><rect width="11" height="11" x="0" y="176" fill="#000"/><rect width="11" height="11" x="22" y="176" fill="#000"/><rect width="11" height="11" x="33" y="176" fill="#000"/><rect width="11" height="11" x="44" y="176" fill="#000"/><rect width="11" height="11" x="66" y="176" fill="#000"/><rect width="11" height="11" x="88" y="176" fill="#000"/><rect width="11" height="11" x="99" y="176" fill="#000"/><rect width="11" height="11" x="121" y="176" fill="#000"/><rect width="11" height="11" x="132" y="176" fill="#000"/><rect width="11" height="11" x="165" y="176" fill="#000"/><rect width="11" height="11" x="209" y="176" fill="#000"/><rect width="11" height="11" x="220" y="176" fill="#000"/><rect width="11" height="11" x="0" y="187" fill="#000"/><rect width="11" height="11" x="22" y="187" fill="#000"/><rect width="11" height="11" x="33" y="187" fill="#000"/><rect width="11" height="11" x="44" y="187" fill="#000"/><rect width="11" height="11" x="66" y="187" fill="#000"/><rect width="11" height="11" x="99" y="187" fill="#000"/><rect width="11" height="11" x="121" y="187" fill="#000"/><rect width="11" height="11" x="165" y="187" fill="#000"/><rect width="11" height="11" x="198" y="187" fill="#000"/><rect width="11" height="11" x="209" y="187" fill="#000"/><rect width="11" height="11" x="0" y="198" fill="#000"/><rect width="11" height="11" x="22" y="198" fill="#000"/><rect width="11" height="11" x="33" y="198" fill="#000"/><rect width="11" height="11" x="44" y="198" fill="#000"/><rect width="11" height="11" x="66" y="198" fill="#000"/><rect width="11" height="11" x="88" y="198" fill="#000"/><rect width="11" height="11" x="99" y="198" fill="#000"/><rect width="11" height="11" x="110" y="198" fill="#000"/><rect width="11" height="11" x="154" y="198" fill="#000"/><rect width="11" height="11" x="176" y="198" fill="#000"/><rect width="11" height="11" x="198" y="198" fill="#000"/><rect width="11" height="11" x="220" y="198" fill="#000"/><rect width="11" height="11" x="0" y="209" fill="#000"/><rect width="11" height="11" x="66" y="209" fill="#000"/><rect width="11" height="11" x="110" y="209" fill="#000"/><rect width="11" height="11" x="143" y="209" fill="#000"/><rect width="11" height="11" x="176" y="209" fill="#000"/><rect width="11" height="11" x="209" y="209" fill="#000"/><rect width="11" height="11" x="0" y="220" fill="#000"/><rect width="11" height="11" x="11" y="220" fill="#000"/><rect width="11" height="11" x="22" y="220" fill="#000"/><rect width="11" height="11" x="33" y="220" fill="#000"/><rect width="11" height="11" x="44" y="220" fill="#000"/><rect width="11" height="11" x="55" y="220" fill="#000"/><rect width="11" height="11" x="66" y="220" fill="#000"/><rect width="11" height="11" x="99" y="220" fill="#000"/><rect width="11" height="11" x="110" y="220" fill="#000"/><rect width="11" height="11" x="154" y="220" fill="#000"/><rect width="11" height="11" x="165" y="220" fill="#000"/><rect width="11" height="11" x="209" y="220" fill="#000"/><rect width="11" height="11" x="220" y="220" fill="#000"/></svg>